<?xml version="1.0" encoding="UTF-8"?>
<svg width="512" height="512" viewBox="0 0 512 512" xmlns="http://www.w3.org/2000/svg">
  <defs>
    <!-- Main shield gradient -->
    <linearGradient id="shieldGradient" x1="0%" y1="0%" x2="0%" y2="100%">
      <stop offset="0%" style="stop-color:#42A5F5;stop-opacity:1" />
      <stop offset="50%" style="stop-color:#2196F3;stop-opacity:1" />
      <stop offset="100%" style="stop-color:#1976D2;stop-opacity:1" />
    </linearGradient>

    <!-- Clock gradient -->
    <radialGradient id="clockGradient" cx="50%" cy="50%" r="50%">
      <stop offset="0%" style="stop-color:#FFFFFF;stop-opacity:1" />
      <stop offset="70%" style="stop-color:#E3F2FD;stop-opacity:0.95" />
      <stop offset="100%" style="stop-color:#BBDEFB;stop-opacity:0.9" />
    </radialGradient>

    <!-- Car accent gradient -->
    <linearGradient id="carGradient" x1="0%" y1="0%" x2="0%" y2="100%">
      <stop offset="0%" style="stop-color:#FFFFFF;stop-opacity:0.9" />
      <stop offset="100%" style="stop-color:#E3F2FD;stop-opacity:0.7" />
    </linearGradient>
  </defs>

  <!-- Background circle for depth -->
  <circle cx="256" cy="256" r="245" fill="#E8F4FD" opacity="0.4"/>

  <!-- Main protection shield -->
  <path d="M256 70 C310 70, 400 88, 400 140 L400 290 C400 380, 330 445, 256 470 C182 445, 112 380, 112 290 L112 140 C112 88, 202 70, 256 70 Z"
        fill="url(#shieldGradient)" stroke="#1565C0" stroke-width="4"/>

  <!-- Inner shield highlight -->
  <path d="M256 95 C295 95, 365 108, 365 150 L365 270 C365 340, 310 390, 256 410 C202 390, 147 340, 147 270 L147 150 C147 108, 217 95, 256 95 Z"
        fill="none" stroke="#64B5F6" stroke-width="2" opacity="0.6"/>

  <!-- Clock face -->
  <circle cx="256" cy="200" r="55" fill="url(#clockGradient)" stroke="#1976D2" stroke-width="3"/>

  <!-- Clock border ring -->
  <circle cx="256" cy="200" r="55" fill="none" stroke="#1565C0" stroke-width="2"/>

  <!-- Clock hands - showing 3 o'clock (reminder time) -->
  <line x1="256" y1="200" x2="256" y2="160" stroke="#1976D2" stroke-width="5" stroke-linecap="round"/>
  <line x1="256" y1="200" x2="290" y2="200" stroke="#1976D2" stroke-width="4" stroke-linecap="round"/>

  <!-- Clock center dot -->
  <circle cx="256" cy="200" r="4" fill="#1976D2"/>

  <!-- Hour markers -->
  <circle cx="256" cy="155" r="3" fill="#1976D2"/>
  <circle cx="301" cy="200" r="3" fill="#1976D2"/>
  <circle cx="256" cy="245" r="3" fill="#1976D2"/>
  <circle cx="211" cy="200" r="3" fill="#1976D2"/>

  <!-- Car silhouette integrated at bottom -->
  <g transform="translate(256, 320)">
    <!-- Car body -->
    <ellipse cx="0" cy="0" rx="35" ry="12" fill="url(#carGradient)" stroke="#1976D2" stroke-width="2"/>
    <!-- Car windows -->
    <rect x="-20" y="-8" width="40" height="8" rx="2" fill="#1976D2" opacity="0.3"/>
    <!-- Wheels -->
    <circle cx="-22" cy="8" r="6" fill="url(#carGradient)" stroke="#1976D2" stroke-width="2"/>
    <circle cx="22" cy="8" r="6" fill="url(#carGradient)" stroke="#1976D2" stroke-width="2"/>
  </g>

  <!-- Central checkmark for "protected" -->
  <path d="M210 370 L240 400 L310 330" stroke="white" stroke-width="10" stroke-linecap="round" stroke-linejoin="round" fill="none"/>

  <!-- Subtle reminder dots around shield -->
  <circle cx="150" cy="180" r="4" fill="#90CAF9" opacity="0.6"/>
  <circle cx="362" cy="180" r="4" fill="#90CAF9" opacity="0.6"/>
  <circle cx="150" cy="240" r="4" fill="#90CAF9" opacity="0.6"/>
  <circle cx="362" cy="240" r="4" fill="#90CAF9" opacity="0.6"/>
</svg>